#define close_width 20
#define close_height 20
static unsigned char close_bits[] = {
   0x00, 0x00, 0x00, 0x06, 0x00, 0x06, 0x0e, 0x00, 0x07, 0x1c, 0x80, 0x03,
   0x38, 0xc0, 0x01, 0x70, 0xe0, 0x00, 0xe0, 0x70, 0x00, 0xc0, 0x39, 0x00,
   0x80, 0x1f, 0x00, 0x00, 0x0f, 0x00, 0x00, 0x0f, 0x00, 0x80, 0x1f, 0x00,
   0xc0, 0x39, 0x00, 0xe0, 0x70, 0x00, 0x70, 0xe0, 0x00, 0x38, 0xc0, 0x01,
   0x1c, 0x80, 0x03, 0x0e, 0x00, 0x07, 0x06, 0x00, 0x06, 0x00, 0x00, 0x00 };
