#define max_width 20
#define max_height 20
static unsigned char max_bits[] = {
   0xff, 0xff, 0x0f, 0xff, 0xff, 0x0f, 0x03, 0x00, 0x0c, 0x03, 0x00, 0x0c,
   0x03, 0x00, 0x0c, 0x03, 0x00, 0x0c, 0x03, 0x00, 0x0c, 0x03, 0x00, 0x0c,
   0x03, 0x00, 0x0c, 0x03, 0x00, 0x0c, 0x03, 0x00, 0x0c, 0x03, 0x00, 0x0c,
   0x03, 0x00, 0x0c, 0x03, 0x00, 0x0c, 0x03, 0x00, 0x0c, 0x03, 0x00, 0x0c,
   0x03, 0x00, 0x0c, 0x03, 0x00, 0x0c, 0xff, 0xff, 0x0f, 0xff, 0xff, 0x0f };
