#define max_toggled_width 20
#define max_toggled_height 20
static unsigned char max_toggled_bits[] = {
   0xf0, 0xff, 0x0f, 0xf0, 0xff, 0x0f, 0x30, 0x00, 0x0c, 0x30, 0x00, 0x0c,
   0xff, 0x7f, 0x0c, 0xff, 0xff, 0x0c, 0x03, 0xc0, 0x0c, 0x03, 0xc0, 0x0c,
   0x03, 0xc0, 0x0c, 0x03, 0xc0, 0x0c, 0x03, 0xc0, 0x0c, 0x03, 0xc0, 0x0c,
   0x03, 0xc0, 0x0c, 0x03, 0xc0, 0x0c, 0x03, 0xc0, 0x0f, 0x03, 0xc0, 0x0f,
   0x03, 0xc0, 0x00, 0x03, 0xc0, 0x00, 0xff, 0xff, 0x00, 0xff, 0xff, 0x00 };
