/* XPM */
static char * maximize_toggled_pressed_xpm[] = {
"40 48 374 2",
"  	c #455D7C",
". 	c #5C7697",
"+ 	c #8EADD5",
"@ 	c #99BAE3",
"# 	c #98B9E2",
"$ 	c #98BAE3",
"% 	c #97B9E2",
"& 	c #94B6DF",
"* 	c #8EAFD6",
"= 	c #8BACD3",
"- 	c #96B8E1",
"; 	c #97B9E1",
"> 	c #8EAFD7",
", 	c #6B87AA",
"' 	c #5A7495",
") 	c #5B7596",
"! 	c #95B7E1",
"~ 	c #94B5DE",
"{ 	c #809FC6",
"] 	c #5C799E",
"^ 	c #4C698D",
"/ 	c #4D6A8E",
"( 	c #8FAFD6",
"_ 	c #9ABAE0",
": 	c #9DBDE4",
"< 	c #8DAED6",
"[ 	c #6B87A9",
"} 	c #5D799D",
"| 	c #6488B4",
"1 	c #668EBF",
"2 	c #668DBD",
"3 	c #5C799D",
"4 	c #748DAC",
"5 	c #A6BFE0",
"6 	c #ADC9EC",
"7 	c #9BBBE4",
"8 	c #95B7E0",
"9 	c #92B4DE",
"0 	c #7F9EC6",
"a 	c #5A779B",
"b 	c #56769D",
"c 	c #6E95C5",
"d 	c #769FD1",
"e 	c #759ED0",
"f 	c #6F95C6",
"g 	c #5978A0",
"h 	c #6A83A3",
"i 	c #9CB3D2",
"j 	c #A7C0E0",
"k 	c #9EBEE3",
"l 	c #9CBCE4",
"m 	c #94B6E1",
"n 	c #8BADD5",
"o 	c #6A86A9",
"p 	c #58769B",
"q 	c #5C80AE",
"r 	c #6990C0",
"s 	c #789ECF",
"t 	c #7BA2D3",
"u 	c #7AA1D3",
"v 	c #79A0D0",
"w 	c #749AC9",
"x 	c #7293BF",
"y 	c #6A83A4",
"z 	c #7C93B0",
"A 	c #A6C0E0",
"B 	c #B2CCED",
"C 	c #93B6E0",
"D 	c #88A9D1",
"E 	c #597394",
"F 	c #476489",
"G 	c #5B83B5",
"H 	c #7099CD",
"I 	c #7AA1D2",
"J 	c #7398C6",
"K 	c #516D91",
"L 	c #667C99",
"M 	c #A8C0DF",
"N 	c #B7D0EF",
"O 	c #92B5DF",
"P 	c #48658A",
"Q 	c #5B83B4",
"R 	c #6F98CB",
"S 	c #79A0D1",
"T 	c #7BA2D2",
"U 	c #7297C5",
"V 	c #526E91",
"W 	c #677D9A",
"X 	c #A6BFDE",
"Y 	c #B5CFEE",
"Z 	c #87A8D1",
"` 	c #48668A",
" .	c #789FD1",
"..	c #7296C5",
"+.	c #667C9A",
"@.	c #A4BDDC",
"#.	c #B3CDED",
"$.	c #91B4DF",
"%.	c #49668A",
"&.	c #6E97CB",
"*.	c #79A0D2",
"=.	c #7196C5",
"-.	c #657C99",
";.	c #A3BBDB",
">.	c #B1CBEC",
",.	c #86A8D1",
"'.	c #5C83B4",
").	c #779FD1",
"!.	c #779FD0",
"~.	c #749ACC",
"{.	c #7299CB",
"].	c #647B99",
"^.	c #A1BBDB",
"/.	c #B0CAEB",
"(.	c #90B3DF",
"_.	c #86A7D0",
":.	c #597495",
"<.	c #49668B",
"[.	c #78A0D1",
"}.	c #739BCC",
"|.	c #6087B8",
"1.	c #577FB0",
"2.	c #587FB1",
"3.	c #9FBADB",
"4.	c #AEC9EA",
"5.	c #90B3DE",
"6.	c #85A7CF",
"7.	c #5C83B5",
"8.	c #769FD0",
"9.	c #7199CA",
"0.	c #597DAC",
"a.	c #748FB6",
"b.	c #7E96BB",
"c.	c #7C95BA",
"d.	c #7096C4",
"e.	c #516E91",
"f.	c #637B99",
"g.	c #9DB9DA",
"h.	c #ACC8EA",
"i.	c #8FB2DD",
"j.	c #84A6CF",
"k.	c #597395",
"l.	c #5C84B5",
"m.	c #769ED0",
"n.	c #77A0D1",
"o.	c #BDCADE",
"p.	c #D0DBEB",
"q.	c #CFDAEA",
"r.	c #7096C5",
"s.	c #637A98",
"t.	c #9CB7D9",
"u.	c #AAC6E9",
"v.	c #8EB2DD",
"w.	c #83A6CF",
"x.	c #7198CA",
"y.	c #E1EAF6",
"z.	c #7095C4",
"A.	c #627998",
"B.	c #9BB6D8",
"C.	c #A9C5E8",
"D.	c #8DB1DD",
"E.	c #83A5CF",
"F.	c #587395",
"G.	c #6E97CA",
"H.	c #769DCF",
"I.	c #779ED0",
"J.	c #7197C9",
"K.	c #587FB0",
"L.	c #7094C4",
"M.	c #617998",
"N.	c #99B4D8",
"O.	c #A7C3E7",
"P.	c #6D97CA",
"Q.	c #DEE7F4",
"R.	c #D3DEED",
"S.	c #607898",
"T.	c #97B4D7",
"U.	c #A5C2E7",
"V.	c #82A5CF",
"W.	c #759DCF",
"X.	c #7098C9",
"Y.	c #99ACC9",
"Z.	c #7B94B9",
"`.	c #6F95C4",
" +	c #607897",
".+	c #96B3D6",
"++	c #A3C1E6",
"@+	c #8BAFDC",
"#+	c #81A3CD",
"$+	c #587294",
"%+	c #6F97C9",
"&+	c #5078AA",
"*+	c #557DAE",
"=+	c #6E94C3",
"-+	c #5F7897",
";+	c #94B2D6",
">+	c #A2C0E5",
",+	c #89ADDA",
"'+	c #7DA0CC",
")+	c #577194",
"!+	c #6D96CA",
"~+	c #749CCE",
"{+	c #759ECF",
"]+	c #6F97C8",
"^+	c #557DAF",
"/+	c #6991C3",
"(+	c #5F7797",
"_+	c #92B0D5",
":+	c #A0BEE4",
"<+	c #86ABD9",
"[+	c #7B9FCB",
"}+	c #567193",
"|+	c #4A668B",
"1+	c #5D84B5",
"2+	c #6F96C8",
"3+	c #577EB0",
"4+	c #6D93C3",
"5+	c #516D90",
"6+	c #5E7797",
"7+	c #91AED5",
"8+	c #9EBDE4",
"9+	c #85AAD8",
"0+	c #557193",
"a+	c #4A678B",
"b+	c #6C96CA",
"c+	c #739BCE",
"d+	c #749CCF",
"e+	c #6E96C8",
"f+	c #516C90",
"g+	c #5D7697",
"h+	c #90ADD4",
"i+	c #9CBBE3",
"j+	c #84AAD8",
"k+	c #7B9FCA",
"l+	c #6D96C8",
"m+	c #6C93C3",
"n+	c #506C90",
"o+	c #5D7696",
"p+	c #8EACD3",
"q+	c #9BBAE2",
"r+	c #83A9D7",
"s+	c #7A9ECA",
"t+	c #557093",
"u+	c #729BCD",
"v+	c #739CCE",
"w+	c #567EB0",
"x+	c #6C93C2",
"y+	c #5C7596",
"z+	c #8CACD2",
"A+	c #99B9E1",
"B+	c #7A9EC9",
"C+	c #6C96C9",
"D+	c #6D96C7",
"E+	c #8BABD1",
"F+	c #97B8E0",
"G+	c #82A8D6",
"H+	c #799DC9",
"I+	c #6D95C7",
"J+	c #6C92C2",
"K+	c #5B7595",
"L+	c #89A9D1",
"M+	c #95B6DF",
"N+	c #5D85B5",
"O+	c #6C95C9",
"P+	c #729ACD",
"Q+	c #6E96C9",
"R+	c #5D85B7",
"S+	c #567DAF",
"T+	c #6C91C2",
"U+	c #88A7D0",
"V+	c #94B5DF",
"W+	c #81A7D6",
"X+	c #799CC9",
"Y+	c #547093",
"Z+	c #7199CD",
"`+	c #739ACD",
" @	c #7199CC",
".@	c #6E95C8",
"+@	c #6C94C7",
"@@	c #6B91C1",
"#@	c #5A7395",
"$@	c #86A6CF",
"%@	c #92B3DE",
"&@	c #789CC9",
"*@	c #6B95C9",
"=@	c #84A5CF",
"-@	c #90B2DD",
";@	c #80A6D6",
">@	c #789CC8",
",@	c #547092",
"'@	c #7099CC",
")@	c #719ACD",
"!@	c #6A91C1",
"~@	c #83A4CE",
"{@	c #8EB1DC",
"]@	c #80A6D5",
"^@	c #779BC8",
"/@	c #546F92",
"(@	c #5E85B5",
"_@	c #4F6C90",
":@	c #82A3CE",
"<@	c #8DB0DC",
"[@	c #7FA5D4",
"}@	c #769AC7",
"|@	c #536E91",
"1@	c #5E86B7",
"2@	c #6B96CA",
"3@	c #709ACD",
"4@	c #6A90C1",
"5@	c #4F6B8F",
"6@	c #577193",
"7@	c #80A2CD",
"8@	c #8BAFDB",
"9@	c #7EA5D4",
"0@	c #779DC9",
"a@	c #5E7DA2",
"b@	c #547399",
"c@	c #658DBF",
"d@	c #6E97C9",
"e@	c #6F97CA",
"f@	c #6B92C3",
"g@	c #668AB8",
"h@	c #5B789D",
"i@	c #6380A5",
"j@	c #7EA1CD",
"k@	c #87ACD9",
"l@	c #7DA4D3",
"m@	c #7BA2D1",
"n@	c #779CCA",
"o@	c #6D90BB",
"p@	c #557398",
"q@	c #55759D",
"r@	c #56769E",
"s@	c #5A779C",
"t@	c #7798C1",
"u@	c #80A3CE",
"v@	c #7FA5D2",
"w@	c #7FA6D5",
"x@	c #7DA4D4",
"y@	c #779CC9",
"z@	c #607EA3",
"A@	c #668BB8",
"B@	c #6A90C0",
"C@	c #59779C",
"D@	c #7CA3D3",
"E@	c #7CA4D3",
"F@	c #7CA2D1",
"G@	c #7DA1CD",
"H@	c #7597C1",
"I@	c #5A779D",
"J@	c #7EA1CE",
"K@	c #7EA4D2",
"L@	c #7FA5D5",
"M@	c #7EA5D5",
"N@	c #83A9D8",
"O@	c #7DA1CE",
"P@	c #6280A5",
"Q@	c #557092",
"R@	c #7EA4D4",
"S@	c #7DA3D1",
"T@	c #7DA0CD",
"U@	c #7DA0CB",
"V@	c #7AA1D1",
"W@	c #84A9D8",
"X@	c #85ABD9",
"Y@	c #85AAD9",
"Z@	c #739ACA",
"`@	c #7399C9",
" #	c #7198C8",
".#	c #7097C8",
"+#	c #6F97C7",
"@#	c #7097C7",
"##	c #567EAF",
"$#	c #4E76A8",
"                                                                                ",
". . . . . . . . . . . . . . . . . . . . . . . . . . . . . . . . . . . . . . . . ",
"+ + + + + + + + + + + + + + + + + + + + + + + + + + + + + + + + + + + + + + + + ",
"@ @ @ @ @ @ @ @ @ @ @ @ @ @ @ @ @ @ @ @ @ @ @ @ @ @ @ @ @ @ @ @ @ @ @ @ @ @ @ @ ",
"# # # # # $ $ $ $ $ $ $ $ $ $ $ $ $ $ $ $ $ $ $ $ $ $ $ $ $ $ $ $ $ $ # # # # # ",
"% % % % % & * = = = = = = = = = = = = = = = = = = = = = = = = = = * & % % % % % ",
"- - - - ; > , ' ) ) ) ) ) ) ) ) ) ) ) ) ) ) ) ) ) ) ) ) ) ) ) ) ' , > % - ! - - ",
"- - - ~ * { ] ^ / / / / / / / / / / / / / / / / / / / / / / / / ^ ] { ( _ : % - ",
"! ! - < [ } | 1 2 2 2 2 2 2 2 2 2 2 2 2 2 2 2 2 2 2 2 2 2 2 2 2 1 | 3 4 5 6 7 8 ",
"! 9 < 0 a b c d e e e e e e e e e e e e e e e e e e e e e e e e d f g h i j k l ",
"m n o p q r s t u u u u u u u u u u u u u u u u u u u u u u u u t v w x y z A B ",
"C D E F G H I t t t t t t t t t t t t t t t t t t t t t t t t t t t t J K L M N ",
"O D ' P Q R S T I I I I I I I I I I I I I I I I I I I I I I I I I I T U V W X Y ",
"O Z ' ` Q R  .I I I I I I I I I I I I I I I I I I I I I I I I I I I I ..V +.@.#.",
"$.Z ' %.Q &. .*.*.*.*.*.*.*.*.*.*.*.*.*.*.*.*.*.*.*.*.*.*.*.*.*.*.*.*.=.V -.;.>.",
"$.,.' %.'.&.).*.*.*.*.!.~.{.{.{.{.{.{.{.{.{.{.{.{.{.{.~.!.*.*.*.*.*.*.=.V ].^./.",
"(._.:.<.'.&.!.[.[.[.[.}.|.1.2.2.2.2.2.2.2.2.2.2.2.2.1.|.}.[.[.[.[.[.[.=.V ].3.4.",
"5.6.:.<.7.&.8.[.[.[.[.9.1.0.a.b.c.c.c.c.c.c.c.c.b.a.0.1.9.[.[.[.[.[.[.d.e.f.g.h.",
"i.j.k.<.l.&.m.n.).).n.9.2.a.o.p.q.q.q.q.q.q.q.q.p.o.a.2.9.n.).).).).n.r.K s.t.u.",
"v.w.k.<.l.&.m.).).).).x.2.b.p.y.y.y.y.y.y.y.y.y.y.p.b.2.x.).).).).).).z.K A.B.C.",
"D.E.F.<.l.G.H.I.I.I.I.J.K.c.q.y.y.y.y.y.y.y.y.y.y.q.c.K.J.I.I.I.I.I.I.L.K M.N.O.",
"D.E.F.<.l.P.H.I.I.I.I.J.1.c.q.Q.R.q.q.q.q.q.q.R.Q.q.c.1.J.I.I.I.I.I.I.L.K S.T.U.",
"D.V.F.<.l.P.W.I.m.m.I.X.1.c.q.R.Y.Z.c.c.c.c.Z.Y.R.q.c.1.X.I.m.m.m.m.I.`.K  +.+++",
"@+#+$+<.l.P.W.m.m.m.m.%+1.c.q.q.Z.&+*+1.1.*+&+Z.q.q.c.1.%+m.m.m.m.m.m.=+K -+;+>+",
",+'+)+<.l.!+~+{+W.W.{+]+1.c.q.q.c.^+/+%+%+/+^+c.q.q.c.1.]+{+W.W.W.W.{+=+K (+_+:+",
"<+[+}+|+1+!+~+W.W.W.W.2+3+c.q.q.c.^+/+%+%+/+^+c.q.q.c.3+2+W.W.W.W.W.W.4+5+6+7+8+",
"9+[+0+a+1+b+c+d+d+d+d+e+3+c.q.q.Z.&+*+1.1.*+&+Z.q.q.c.3+e+d+d+d+d+d+d+4+f+g+h+i+",
"j+k+0+a+1+b+c+d+d+d+d+l+3+c.q.R.Y.Z.c.c.c.c.Z.Y.R.q.c.3+l+d+d+d+d+d+d+m+n+o+p+q+",
"r+s+t+a+1+b+u+v+v+v+v+l+w+b.p.Q.R.q.q.q.q.q.q.R.Q.p.b.w+l+v+v+v+v+v+v+x+n+y+z+A+",
"r+B+t+a+1+C+u+v+v+v+v+D+w+a.o.p.q.q.q.q.q.q.q.q.p.o.a.w+D+v+v+v+v+v+v+x+n+) E+F+",
"G+H+t+a+1+b+u+v+c+c+v+I+w+0.a.b.c.c.c.c.c.c.c.c.b.a.0.w+I+v+c+c+c+c+v+J+n+K+L+M+",
"G+H+t+a+N+O+P+c+c+c+c+Q+R+S+w+w+w+w+w+w+w+w+w+w+w+w+S+R+Q+c+c+c+c+c+c+T+n+' U+V+",
"W+X+Y+a+N+O+Z+`+P+P+P+ @.@+@+@+@+@+@+@+@+@+@+@+@+@+@+@.@ @P+P+P+P+P+`+@@n+#@$@%@",
"W+&@Y+a+N+*@ @P+P+P+P+P+P+P+P+P+P+P+P+P+P+P+P+P+P+P+P+P+P+P+P+P+P+P+P+@@n+k.=@-@",
";@>@,@a+N+*@'@)@)@)@)@)@)@)@)@)@)@)@)@)@)@)@)@)@)@)@)@)@)@)@)@)@)@)@)@!@n+E ~@{@",
"]@^@/@a+(@*@'@)@)@)@)@)@)@)@)@)@)@)@)@)@)@)@)@)@)@)@)@)@)@)@)@)@)@)@)@!@_@$+:@<@",
"[@}@|@a+1@2@'@'@'@'@'@'@'@'@'@'@'@'@'@'@'@'@'@'@'@'@'@'@'@'@'@'@'@'@3@4@5@6@7@8@",
"9@0@a@b@q c@d@'@'@'@'@'@'@'@'@'@'@'@'@'@'@'@'@'@'@'@'@'@'@'@'@'@'@e@f@g@h@i@j@k@",
"l@m@n@o@p@q@f@'@'@'@'@'@'@'@'@'@'@'@'@'@'@'@'@'@'@'@'@'@'@'@'@'@'@f@r@s@t@u@v@w@",
"l@l@x@y@z@s@A@B@B@B@B@B@B@B@B@B@B@B@B@B@B@B@B@B@B@B@B@B@B@B@B@B@B@g@C@i@u@<+w@D@",
"D@D@E@F@G@H@I@5@_@_@_@_@_@_@_@_@_@_@_@_@_@_@_@_@_@_@_@_@_@_@_@_@5@I@H@J@K@L@l@D@",
"D@D@t M@N@O@P@Q@}+}+}+}+}+}+}+}+}+}+}+}+}+}+}+}+}+}+}+}+}+}+}+}+Q@P@O@N@R@T D@D@",
"T T T D@x@S@T@U@'+'+'+'+'+'+'+'+'+'+'+'+'+'+'+'+'+'+'+'+'+'+'+'+U@T@S@x@D@T T T ",
"T T T T V@x@W@X@Y@Y@Y@Y@Y@Y@Y@Y@Y@Y@Y@Y@Y@Y@Y@Y@Y@Y@Y@Y@Y@Y@Y@Y@X@W@x@V@T T T T ",
"V@V@V@V@T D@L@]@]@]@]@]@]@]@]@]@]@]@]@]@]@]@]@]@]@]@]@]@]@]@]@]@]@L@D@T V@V@V@V@",
"Z@Z@Z@Z@`@ #.#+#@#@#@#@#@#@#@#@#@#@#@#@#@#@#@#@#@#@#@#@#@#@#@#@#+#.# #`@Z@Z@Z@Z@",
"K.K.K.K.2.K.w+####################################################w+K.2.K.K.K.K.",
"$#$#$#$#$#$#$#$#$#$#$#$#$#$#$#$#$#$#$#$#$#$#$#$#$#$#$#$#$#$#$#$#$#$#$#$#$#$#$#$#"};
