/* XPM */
static char * maximize_active_xpm[] = {
"40 48 357 2",
"  	c #455D7C",
". 	c #667C9A",
"+ 	c #A4BDDD",
"@ 	c #AEC9EB",
"# 	c #AEC9EC",
"$ 	c #AFCAEC",
"% 	c #ADC8EB",
"& 	c #AECAEC",
"* 	c #9FBEE5",
"= 	c #A0BFE6",
"- 	c #A2C1E7",
"; 	c #98B8E1",
"> 	c #93B5DF",
", 	c #95B7E1",
"' 	c #95B8E1",
") 	c #98B9E3",
"! 	c #97B8E2",
"~ 	c #8FB2DE",
"{ 	c #85ABD9",
"] 	c #7BA1D1",
"^ 	c #7197C8",
"/ 	c #6E93C4",
"( 	c #6E94C4",
"_ 	c #98B9E2",
": 	c #96B8E2",
"< 	c #8EB1DE",
"[ 	c #85AAD9",
"} 	c #7DA5D5",
"| 	c #6D95C5",
"1 	c #5578A4",
"2 	c #4D6D97",
"3 	c #4D6E98",
"4 	c #94B6E1",
"5 	c #92B4DF",
"6 	c #87ABDA",
"7 	c #799FD0",
"8 	c #6D94C5",
"9 	c #5D85B5",
"0 	c #5276A1",
"a 	c #5C7A9E",
"b 	c #6580A2",
"c 	c #6782A3",
"d 	c #6781A3",
"e 	c #8AADDB",
"f 	c #88ACDA",
"g 	c #7FA5D6",
"h 	c #6B93C4",
"i 	c #5478A3",
"j 	c #4E739F",
"k 	c #6990BE",
"l 	c #8CABD4",
"m 	c #A1BBDD",
"n 	c #A5BEDF",
"o 	c #4E749F",
"p 	c #5578A3",
"q 	c #81A7D7",
"r 	c #7DA3D2",
"s 	c #6F96C6",
"t 	c #5B83B4",
"u 	c #50749F",
"v 	c #5E80AA",
"w 	c #83A6D2",
"x 	c #A1C1E8",
"y 	c #82A6D2",
"z 	c #5A7EA8",
"A 	c #4C6F9B",
"B 	c #5A82B2",
"C 	c #7EA5D5",
"D 	c #769CCA",
"E 	c #5B7DA6",
"F 	c #50759F",
"G 	c #688EBC",
"H 	c #82A5D2",
"I 	c #97B7E0",
"J 	c #A3C1E7",
"K 	c #A1BFE6",
"L 	c #769DCA",
"M 	c #577EB0",
"N 	c #4B6D9A",
"O 	c #5B7DA7",
"P 	c #7EA4D4",
"Q 	c #749AC8",
"R 	c #55749B",
"S 	c #57769C",
"T 	c #81A3CF",
"U 	c #99BAE4",
"V 	c #9EBDE5",
"W 	c #9DBCE5",
"X 	c #9ABCE4",
"Y 	c #88AEDC",
"Z 	c #6A8FC1",
"` 	c #4E6D96",
" .	c #7EA5D4",
"..	c #759BC9",
"+.	c #55759B",
"@.	c #5E7BA0",
"#.	c #90AFD6",
"$.	c #9CBCE4",
"%.	c #9CBCE5",
"&.	c #9ABBE4",
"*.	c #8FB3DF",
"=.	c #759AC7",
"-.	c #52729A",
";.	c #7FA5D4",
">.	c #769CC9",
",.	c #56759B",
"'.	c #607DA1",
").	c #93B1D8",
"!.	c #9DBDE5",
"~.	c #9BBBE4",
"{.	c #9ABAE4",
"].	c #98B8E2",
"^.	c #92B2DC",
"/.	c #8FB0DA",
"(.	c #99B9E3",
"_.	c #90B3DF",
":.	c #779CC9",
"<.	c #53749B",
"[.	c #80A6D5",
"}.	c #56759C",
"|.	c #607DA0",
"1.	c #9ABAE3",
"2.	c #91B1DC",
"3.	c #7193C0",
"4.	c #6185B4",
"5.	c #6286B5",
"6.	c #8FB2DF",
"7.	c #789DCA",
"8.	c #56769C",
"9.	c #8DAED9",
"0.	c #597DAC",
"a.	c #748FB6",
"b.	c #7E96BB",
"c.	c #7C95BA",
"d.	c #54749B",
"e.	c #81A7D6",
"f.	c #9DBCE4",
"g.	c #6186B5",
"h.	c #BDCADE",
"i.	c #D0DBEB",
"j.	c #CFDAEA",
"k.	c #96B7E2",
"l.	c #8EB2DE",
"m.	c #789CC9",
"n.	c #82A7D7",
"o.	c #799DCB",
"p.	c #8CADD8",
"q.	c #E1EAF6",
"r.	c #83A8D7",
"s.	c #7A9ECB",
"t.	c #95B6E1",
"u.	c #96B7E1",
"v.	c #8BACD8",
"w.	c #6185B5",
"x.	c #8DB1DE",
"y.	c #789DC9",
"z.	c #54759B",
"A.	c #7B9ECB",
"B.	c #97B7E2",
"C.	c #8AACD7",
"D.	c #6085B4",
"E.	c #DEE7F4",
"F.	c #D3DEED",
"G.	c #93B5E0",
"H.	c #84A9D7",
"I.	c #7B9FCB",
"J.	c #94B5E0",
"K.	c #89ABD7",
"L.	c #99ACC9",
"M.	c #7B94B9",
"N.	c #93B4E0",
"O.	c #8DB1DD",
"P.	c #799DCA",
"Q.	c #85A9D7",
"R.	c #9CBBE4",
"S.	c #92B4E0",
"T.	c #88ABD7",
"U.	c #5279AA",
"V.	c #5C81B1",
"W.	c #5F84B4",
"X.	c #8CB0DD",
"Y.	c #55759C",
"Z.	c #86AAD8",
"`.	c #7DA0CC",
" +	c #58779C",
".+	c #91B4DF",
"++	c #88AAD6",
"@+	c #5C81B2",
"#+	c #7EA1CD",
"$+	c #88AAD7",
"%+	c #91B3DF",
"&+	c #58779D",
"*+	c #90B2DE",
"=+	c #84A7D4",
"-+	c #5E84B4",
";+	c #86A9D5",
">+	c #8FB1DE",
",+	c #8EB1DD",
"'+	c #8BAFDC",
")+	c #87ABD9",
"!+	c #7EA0CD",
"~+	c #8AAEDC",
"{+	c #7FA3D1",
"]+	c #5D83B3",
"^+	c #89ADDB",
"/+	c #88ADDA",
"(+	c #88ADDB",
"_+	c #7B9FCC",
":+	c #57779D",
"<+	c #88ACD9",
"[+	c #8AAEDB",
"}+	c #84AAD8",
"|+	c #86ABD9",
"1+	c #7CA1CF",
"2+	c #5B82B2",
"3+	c #5C82B2",
"4+	c #85AAD8",
"5+	c #7DA0CD",
"6+	c #89ADDA",
"7+	c #7FA2CE",
"8+	c #59779D",
"9+	c #99BAE3",
"0+	c #89AEDA",
"a+	c #83A9D7",
"b+	c #7BA1CF",
"c+	c #7CA2D0",
"d+	c #7DA1CD",
"e+	c #80A3CE",
"f+	c #59789D",
"g+	c #99B9E2",
"h+	c #82A8D7",
"i+	c #7AA0CF",
"j+	c #5B81B2",
"k+	c #587FB0",
"l+	c #7298C7",
"m+	c #80A3CF",
"n+	c #82A8D6",
"o+	c #799FCE",
"p+	c #5A81B2",
"q+	c #5078AA",
"r+	c #8BAEDB",
"s+	c #81A4CF",
"t+	c #80A6D6",
"u+	c #799ECE",
"v+	c #82A7D6",
"w+	c #8CAFDB",
"x+	c #82A4CF",
"y+	c #5A789D",
"z+	c #86AAD9",
"A+	c #7FA5D5",
"B+	c #789DCE",
"C+	c #83A4CF",
"D+	c #779DCD",
"E+	c #5A80B2",
"F+	c #8DB0DC",
"G+	c #83A5CF",
"H+	c #5A789E",
"I+	c #85A9D8",
"J+	c #7DA4D4",
"K+	c #769CCD",
"L+	c #5980B1",
"M+	c #7FA6D5",
"N+	c #8EB0DC",
"O+	c #83A5D0",
"P+	c #5A799E",
"Q+	c #7CA3D3",
"R+	c #769ECE",
"S+	c #6188B9",
"T+	c #5880B1",
"U+	c #8FB1DD",
"V+	c #84A6D0",
"W+	c #5B799E",
"X+	c #83A8D6",
"Y+	c #7AA2D2",
"Z+	c #7BA3D3",
"`+	c #79A1D1",
" @	c #759CCC",
".@	c #739BCB",
"+@	c #7DA5D4",
"@@	c #85A6D1",
"#@	c #5F7CA0",
"$@	c #91AFD7",
"%@	c #97B8E1",
"&@	c #81A7D5",
"*@	c #79A1D2",
"=@	c #7CA4D3",
"-@	c #86A7D1",
";@	c #78A0D1",
">@	c #79A0D1",
",@	c #7CA4D5",
"'@	c #6F95C5",
")@	c #527299",
"!@	c #88A9D4",
"~@	c #6887AE",
"{@	c #6080A7",
"]@	c #7195C0",
"^@	c #769CCB",
"/@	c #769DCE",
"(@	c #779FD1",
"_@	c #739BCC",
":@	c #6991C3",
"<@	c #6087B6",
"[@	c #5B7CA4",
"}@	c #6988AE",
"|@	c #85A8D3",
"1@	c #7B9DC6",
"2@	c #5D7EA6",
"3@	c #658DBF",
"4@	c #719BCE",
"5@	c #769ED0",
"6@	c #648CBE",
"7@	c #5175A0",
"8@	c #597AA3",
"9@	c #7A9CC6",
"0@	c #84AAD9",
"a@	c #86ACDA",
"b@	c #8BB0DC",
"c@	c #6787AD",
"d@	c #5677A0",
"e@	c #577EAE",
"f@	c #6188BB",
"g@	c #6A92C2",
"h@	c #6C94C4",
"i@	c #6C93C4",
"j@	c #577EAF",
"k@	c #6787AE",
"l@	c #86A9D4",
"m@	c #86ACD9",
"n@	c #88ACD8",
"o@	c #84A7D3",
"p@	c #7698C3",
"q@	c #4C6D95",
"r@	c #517199",
"s@	c #6A88AF",
"t@	c #5C799E",
"u@	c #5C7A9F",
"v@	c #7BA2D2",
"w@	c #89AEDB",
"x@	c #8BACD7",
"y@	c #89AAD4",
"z@	c #8AABD4",
"A@	c #7DA4D3",
"B@	c #87ACD9",
"C@	c #7AA1D1",
"D@	c #7DA3D3",
"E@	c #739ACA",
"F@	c #7399C9",
"G@	c #7198C8",
"H@	c #6F96C7",
"I@	c #6D95C6",
"J@	c #6C94C6",
"K@	c #587FB1",
"L@	c #577FB0",
"M@	c #557DAF",
"N@	c #547CAE",
"O@	c #537CAE",
"P@	c #4E76A8",
"                                                                                ",
". . . . . . . . . . . . . . . . . . . . . . . . . . . . . . . . . . . . . . . . ",
"+ + + + + + + + + + + + + + + + + + + + + + + + + + + + + + + + + + + + + + + + ",
"@ # $ $ % % @ & & & & & & & & & & & & & & & & & & & & & & & & & & @ % % $ $ # @ ",
"* = - = ; > , ' ' ' ' ' ' ' ' ' ' ' ' ' ' ' ' ' ' ' ' ' ' ' ' ' ' , > ; = - = * ",
") ! , ~ { ] ^ / ( ( ( ( ( ( ( ( ( ( ( ( ( ( ( ( ( ( ( ( ( ( ( ( / ^ ] { ~ , ! ) ",
"_ : < [ } | 1 2 3 3 3 3 3 3 3 3 3 3 3 3 3 3 3 3 3 3 3 3 3 3 3 3 2 1 | } [ < : _ ",
"4 5 6 7 8 9 0 a b c d d d d d d d d d d d d d d d d d d d d c b a 0 9 8 7 6 5 4 ",
"e f g h i j k l m n n n n n n n n n n n n n n n n n n n n n n m l k o p h g f e ",
"q r s t u v w x @ $ $ $ $ $ $ $ $ $ $ $ $ $ $ $ $ $ $ $ $ $ $ @ x y z A B s r q ",
"C D E F G H I = J J J J J J J J J J J J J J J J J J J J J J J J K > L M N O D C ",
"P Q R S T U V V W W W W W W W W W W W W W W W W W W W W W W W W V X Y Z ` R Q P ",
" ...+.@.#.V W $.$.$.$.$.$.$.$.$.$.$.$.$.$.$.$.$.$.$.$.$.$.$.$.$.%.&.*.=.-.+... .",
";.>.,.'.).!.~.{.~.].^././././././././././././././././././.^.].~.~.(._.:.<.,.>.;.",
"[.:.}.|.).W {.(.1.2.3.4.5.5.5.5.5.5.5.5.5.5.5.5.5.5.5.5.4.3.2.1.1.].6.:.<.}.:.[.",
"[.7.8.|.).W 1.) (.9.4.0.a.b.c.c.c.c.c.c.c.c.c.c.c.c.b.a.0.4.9.(.(.! 6.:.d.8.7.[.",
"e.7.8.|.).f.(.! ].9.g.a.h.i.j.j.j.j.j.j.j.j.j.j.j.j.i.h.a.g.9.].].k.l.m.d.8.7.e.",
"n.o.8.|.).f._ k.! p.g.b.i.q.q.q.q.q.q.q.q.q.q.q.q.q.q.i.b.g.p.! ! , < m.d.8.o.n.",
"r.s.S |.).$.! t.u.v.w.c.j.q.q.q.q.q.q.q.q.q.q.q.q.q.q.j.c.w.v.u.u.4 x.y.z.S s.r.",
"r.A.S |.).$.B.4 t.C.D.c.j.E.F.j.j.j.j.j.j.j.j.j.j.F.E.j.c.D.C.t.t.G.x.y.+.S A.r.",
"H.I.S |.).$.u.G.J.K.D.c.j.F.L.M.c.c.c.c.c.c.c.c.M.L.F.j.c.D.K.J.J.N.O.P.+.S I.H.",
"Q.I.S |.).R., S.G.T.D.c.j.j.M.U.V.D.W.W.W.W.D.V.U.M.j.j.c.D.T.G.G.5 X.P.Y.S I.Q.",
"Z.`. +|.).R.4 .+S.++W.c.j.j.c.@+#+$+++++++++$+#+@+c.j.j.c.W.++S.5 %+X.P.Y. +`.Z.",
"Z.`.&+|.).~.5 < *+=+-+c.j.j.c.W.;+*+~ ~ ~ ~ *+;+W.c.j.j.c.-+=+*+>+,+'+s.8.&+`.Z.",
")+!+&+|.).1.,+f ~+{+]+c.j.j.c.]+{+'+^+^+^+^+'+{+]+c.j.j.c.]+{+~+^+/+(+_+:+&+!+)+",
"<+#+&+|.).1.[+}+|+1+2+c.j.j.c.3+1+|+4+4+4+4+|+1+3+c.j.j.c.2+1+|+4+4+|+5+&+&+#+<+",
"6+7+8+|.).9+0+a+}+b+2+c.j.j.c.3+c+4+}+}+}+}+4+c+3+c.j.j.c.2+b+}+H.}+|+d+&+8+7+6+",
"^+e+f+|.).g+6+h+a+i+j+c.j.j.c.k+l+b+i+i+i+i+b+l+k+c.j.j.c.j+i+a+h+a+{ d+&+f+e+^+",
"[+m+f+|.).g+<+e.n+o+p+c.j.j.M.q+k+2+p+p+p+p+2+k+q+M.j.j.c.p+o+n+e.h+4+d+&+f+m+[+",
"r+s+f+|.).g+)+t+e.u+p+c.j.F.L.M.c.c.c.c.c.c.c.c.M.L.F.j.c.p+u+e.t+v+4+d+&+f+s+r+",
"w+x+y+|.).g+z+A+[.B+p+b.i.E.F.j.j.j.j.j.j.j.j.j.j.F.E.i.b.p+B+[.A+e.4+d+&+y+x+w+",
"w+C+y+|.).g+4+C A+D+E+a.h.i.j.j.j.j.j.j.j.j.j.j.j.j.i.h.a.E+D+A+C t+4+d+&+y+C+w+",
"F+G+H+|.).g+I+J+P K+L+0.a.b.c.c.c.c.c.c.c.c.c.c.c.c.b.a.0.L+K+P J+M+}+d+&+H+G+F+",
"N+O+P+|.)._ H.Q+J+R+S+k+T+T+T+T+T+T+T+T+T+T+T+T+T+T+T+T+k+S+R+J+Q+C }+d+&+P+O+N+",
"U+V+W+|.)._ X+Y+Z+`+ @.@.@.@.@.@.@.@.@.@.@.@.@.@.@.@.@.@.@ @`+Z+Y++@}+d+&+W+V+U+",
"*+@@W+#@$@%@&@*@*@Y+Y+Y+Y+Y+Y+Y+Y+Y+Y+Y+Y+Y+Y+Y+Y+Y+Y+Y+Y+Y+Y+*@*@=@a+_+S W+@@*+",
"*+-@y+W+@@l. .;@>@`+`+`+`+`+`+`+`+`+`+`+`+`+`+`+`+`+`+`+`+`+`+>@`+Y+,@'@)@y+-@*+",
"*+!@~@{@]@^@/@(@;@(@(@(@(@(@(@(@(@(@(@(@(@(@(@(@(@(@(@(@(@(@(@;@(@_@:@<@[@}@!@*+",
"X.6+|@1@2@p 3@4@5@5@5@5@5@5@5@5@5@5@5@5@5@5@5@5@5@5@5@5@5@5@5@5@4@6@7@8@9@|@6+X.",
"0@a@b@|@c@d@e@f@g@h@i@i@i@i@i@i@i@i@i@i@i@i@i@i@i@i@i@i@i@i@h@g@f@j@d@k@l@b@a@0@",
"J+t+m@n@o@p@d@q@r@-.-.-.-.-.-.-.-.-.-.-.-.-.-.-.-.-.-.-.-.-.-.r@q@d@p@o@n@m@t+J+",
"Q+Q+[.|+b@|@s@t@u@u@u@u@u@u@u@u@u@u@u@u@u@u@u@u@u@u@u@u@u@u@u@u@t@s@|@b@|+[.Q+Q+",
"v@v@Q+[.w@F+x@y@z@z@z@z@z@z@z@z@z@z@z@z@z@z@z@z@z@z@z@z@z@z@z@z@y@x@F+w@[.Q+v@v@",
"v@v@v@A@B@~ S.G.G.G.G.G.G.G.G.G.G.G.G.G.G.G.G.G.G.G.G.G.G.G.G.G.G.S.~ B@A@v@v@v@",
"C@C@v@D@e.H.4+Z.4+4+4+4+4+4+4+4+4+4+4+4+4+4+4+4+4+4+4+4+4+4+4+4+Z.4+H.e.D@v@C@C@",
"E@E@F@G@H@I@J@J@J@J@J@J@J@J@J@J@J@J@J@J@J@J@J@J@J@J@J@J@J@J@J@J@J@J@I@H@G@F@E@E@",
"k+k+K@L@M@N@O@O@O@O@O@O@O@O@O@O@O@O@O@O@O@O@O@O@O@O@O@O@O@O@O@O@O@O@N@M@L@K@k+k+",
"P@P@P@P@P@P@P@P@P@P@P@P@P@P@P@P@P@P@P@P@P@P@P@P@P@P@P@P@P@P@P@P@P@P@P@P@P@P@P@P@"};
